<svg xmlns="http://www.w3.org/2000/svg" viewBox="0 0 512 512" width="512" height="512">
  <defs>
    <linearGradient id="bg-grad" x1="0%" y1="0%" x2="100%" y2="100%">
      <stop offset="0%" stop-color="#0284c7" />
      <stop offset="100%" stop-color="#0f172a" />
    </linearGradient>
    <linearGradient id="sparkle-grad" x1="0%" y1="0%" x2="100%" y2="100%">
      <stop offset="0%" stop-color="#34d399" />
      <stop offset="100%" stop-color="#059669" />
    </linearGradient>
  </defs>
  <rect width="512" height="512" rx="128" fill="url(#bg-grad)" />
  <path d="M256 120 L400 190 L256 260 L112 190 Z" fill="#ffffff" />
  <path d="M160 215 L160 290 C160 330, 352 330, 352 290 L352 215 L256 260 Z" fill="#e2e8f0" />
  <path d="M400 190 L420 280 L405 295 L395 285 L400 190 Z" fill="#fbbf24" />
  <path d="M256 320 Q256 360, 296 360 Q256 360, 256 400 Q256 360, 216 360 Q256 360, 256 320 Z" fill="url(#sparkle-grad)" />
  <path d="M370 120 Q370 140, 390 140 Q370 140, 370 160 Q370 140, 350 140 Q370 140, 370 120 Z" fill="#fbbf24" />
</svg>
